<?xml version="1.0" encoding="UTF-8"?>
<svg version="1.1" xmlns="http://www.w3.org/2000/svg" width="100%" height="100%">
	<defs>
		<g id="WordPressIcon">
			<path fill="fill:inherit" d="M98.5,200c0,41.9,24.3,78.1,59.6,95.2l-50.5-138.3C101.8,170.1,98.5,184.7,98.5,200z"/>
			<path fill="fill:inherit" d="M275.7,194.7c0-13.1-4.7-22.1-8.7-29.2c-5.4-8.7-10.4-16.1-10.4-24.8c0-9.7,7.4-18.8,17.8-18.8
			  c0.5,0,0.9,0.1,1.4,0.1c-18.8-17.2-43.9-27.8-71.4-27.8c-37,0-69.5,19-88.4,47.7c2.5,0.1,4.8,0.1,6.8,0.1
			  c11.1,0,28.2-1.3,28.2-1.3c5.7-0.3,6.4,8,0.7,8.7c0,0-5.7,0.7-12.1,1L178,265l23.2-69.4l-16.5-45.2c-5.7-0.3-11.1-1-11.1-1
			  c-5.7-0.3-5-9.1,0.7-8.7c0,0,17.5,1.3,27.9,1.3c11.1,0,28.2-1.3,28.2-1.3c5.7-0.3,6.4,8,0.7,8.7c0,0-5.7,0.7-12.1,1l38.2,113.7
			  l10.6-35.3C272.2,214.2,275.7,203.7,275.7,194.7z"/>
			<path fill="fill:inherit" d="M206.1,209.2l-31.7,92.2c9.5,2.8,19.5,4.3,29.9,4.3c12.3,0,24.1-2.1,35.1-6c-0.3-0.5-0.5-0.9-0.8-1.5
			  L206.1,209.2z"/>
			<path fill="fill:inherit" d="M297.1,149.2c0.5,3.4,0.7,7,0.7,10.9c0,10.7-2,22.8-8,37.9l-32.3,93.4c31.4-18.3,52.6-52.4,52.6-91.4
			  C310.1,181.6,305.4,164.3,297.1,149.2z"/>
			<path fill="fill:inherit" d="M204.3,76.7C136.3,76.7,81,132,81,200c0,68,55.3,123.3,123.3,123.3c68,0,123.3-55.3,123.3-123.3
			  C327.6,132,272.3,76.7,204.3,76.7z M204.3,317.7c-64.9,0-117.7-52.8-117.7-117.7c0-64.9,52.8-117.7,117.7-117.7
			  c64.9,0,117.7,52.8,117.7,117.7C321.9,264.9,269.1,317.7,204.3,317.7z"/>
		</g>
		<g id="A_Server">
			<g id="Layer_1">
				<rect x="-4537.3" y="-7467.6" fill="#272822" stroke="#231F20" stroke-miterlimit="10" width="16056.8" height="16172.5"/>
			</g>
			<g id="Server_A">
				<g id="Card_10_">
					<g>
						<rect x="201" y="172" opacity="0.2" fill="#FFFFFF" width="560" height="204"/>
						<rect x="200" y="175" fill="none" stroke="#CBCBCA" stroke-width="4" stroke-miterlimit="10" width="558" height="204"/>
					</g>
					<circle fill="#CBCBCA" cx="248.3" cy="272.5" r="70.7"/>
				</g>
				<g>
					<path fill="#FFFFFF" d="M538,279.4c-7.8,0-8.9,4.3-8.9,8.1c0,3.1,0.4,6.1,0.9,9.2c0.4,3.1,0.9,6,0.9,9.1c0,10.1-6.7,14.3-16,14.3
						h-2.2v-6h2c6.3-0.1,8.6-3.5,8.6-9.4c0-2.5-0.4-5.1-0.8-7.8c-0.4-2.7-0.9-5.4-0.9-8.3c0-7,3.1-10.5,7.9-11.8v-0.2
						c-4.8-1.2-7.9-4.9-7.9-11.9c0-3,0.4-5.7,0.9-8.3c0.3-2.7,0.8-5.2,0.8-7.9c0-6.1-2.6-9.4-8.8-9.5h-1.9v-6h2.3c9,0,15.9,3.9,15.9,15
						c0,3-0.4,6-0.9,9c-0.4,3-0.9,5.9-0.9,8.9c0,3.4,1.1,8.1,8.9,8.1V279.4z"/>
				</g>
				<text transform="matrix(1 0 0 1 401.5449 253.9297)"><tspan x="0" y="0" fill="#FFFFFF" font-family="'LucidaGrande'" font-size="22.3219">Mémoire</tspan><tspan x="51" y="26.8" fill="#FFFFFF" font-family="'LucidaGrande'" font-size="22.3219">CPU</tspan><tspan x="-58.8" y="53.6" fill="#FFFFFF" font-family="'LucidaGrande'" font-size="22.3219">Espace disque</tspan></text>
				<text transform="matrix(1 0 0 1 561.7808 280.7158)" fill="#FFFFFF" font-family="'LucidaGrande'" font-size="22.3219">Services</text>
				<g id="Socket_2_">
					<path fill="#CBCBCA" d="M814.8,209c0-1.8,1.4-3.2,3.2-3.2h22.3c1.8,0,3.2,1.4,3.2,3.2v12.7c0,1.8-1.4,3.2-3.2,3.2H818
						c-1.8,0-3.2-1.4-3.2-3.2V209z"/>
					<path fill="none" stroke="#CBCBCA" stroke-width="4" stroke-miterlimit="10" d="M761,272.7c43.8,0,66.5,3.6,66.5-15.9
						c0-19.5-54.2-12.7-54.2-28.7c0-15.9,25.5-12.7,51-12.7"/>
					<polygon fill="#CBCBCA" points="840.3,211.1 818,198.4 818,193.1 840.3,205.8 		"/>
				</g>
				<g id="Server_B">
					<path fill="#272822" d="M224.2,253.6h51.2c3.1,0,5.8,1.4,7.7,3.5l-5.1-11.2c-1.8-3.9-3.4-7.7-7.7-7.7h-40.9
						c-4.2,0-6.1,3.6-7.7,7.7l-5.1,11.2C218.4,255,221.1,253.6,224.2,253.6"/>
					<path fill="#272822" d="M247.2,263.8h-5.1c-1.4,0-2.6,1.2-2.6,2.6v28.1c0,1.4,1.1,2.6,2.6,2.6h5.1c1.4,0,2.6-1.2,2.6-2.6v-28.1
						C249.8,264.9,248.6,263.8,247.2,263.8 M244.7,271.5c-1.4,0-2.6-1.1-2.6-2.6c0-1.4,1.1-2.6,2.6-2.6s2.6,1.1,2.6,2.6
						C247.2,270.3,246.1,271.5,244.7,271.5"/>
					<path fill="#272822" d="M272.8,263.8h-5.1c-1.4,0-2.6,1.2-2.6,2.6v28.1c0,1.4,1.1,2.6,2.6,2.6h5.1c1.4,0,2.6-1.2,2.6-2.6v-28.1
						C275.4,264.9,274.2,263.8,272.8,263.8 M270.2,271.5c-1.4,0-2.6-1.1-2.6-2.6c0-1.4,1.1-2.6,2.6-2.6s2.6,1.1,2.6,2.6
						C272.8,270.3,271.7,271.5,270.2,271.5"/>
					<path fill="#272822" d="M260,263.8h-5.1c-1.4,0-2.6,1.2-2.6,2.6v28.1c0,1.4,1.2,2.6,2.6,2.6h5.1c1.4,0,2.6-1.2,2.6-2.6v-28.1
						C262.6,264.9,261.4,263.8,260,263.8 M257.5,271.5c-1.4,0-2.6-1.1-2.6-2.6c0-1.4,1.1-2.6,2.6-2.6c1.4,0,2.6,1.1,2.6,2.6
						C260,270.3,258.9,271.5,257.5,271.5"/>
					<path fill="#272822" d="M275.4,256.1h-51.2c-4.2,0-7.7,3.4-7.7,7.7v33.3c0,4.2,3.4,7.7,7.7,7.7h51.2c4.2,0,7.7-3.4,7.7-7.7v-33.3
						C283,259.6,279.6,256.1,275.4,256.1 M225.5,271.6c-2.2,0-4-1.8-4-4c0-2.2,1.8-4,4-4s4,1.8,4,4
						C229.5,269.8,227.7,271.6,225.5,271.6 M277.9,297.1c0,1.4-1.1,2.6-2.6,2.6h-35.8c-1.4,0-2.6-1.1-2.6-2.6v-33.3
						c0-1.4,1.1-2.6,2.6-2.6h35.8c1.4,0,2.6,1.1,2.6,2.6V297.1z"/>
				</g>
			</g>
		</g>
	</defs>
</svg>
